<svg width="20" height="20" viewBox="0 0 20 20" fill="none" xmlns="http://www.w3.org/2000/svg">
<mask id="mask0_2_118" style="mask-type:alpha" maskUnits="userSpaceOnUse" x="0" y="0" width="20" height="20">
<rect width="20" height="20" fill="#D9D9D9"/>
</mask>
<g mask="url(#mask0_2_118)">
<path d="M12.6096 15.2291V13.4877H16.0227V15.2291H12.6096ZM12.6096 8.40811V6.66665H18.5227V8.40811H12.6096ZM12.6096 11.821V10.0748H17.6894V11.821H12.6096ZM2.31063 6.66665H1.47729V4.77081H4.89042V3.52081H8.40813V4.77081H11.816V6.66665H10.9827V14.1069C10.9827 14.6316 10.798 15.0787 10.4285 15.4483C10.059 15.8179 9.61174 16.0027 9.08688 16.0027H4.20646C3.68174 16.0027 3.23459 15.8179 2.865 15.4483C2.49542 15.0787 2.31063 14.6316 2.31063 14.1069V6.66665ZM4.20646 6.66665V14.1069H9.08688V6.66665H4.20646Z" fill="#F9F8FC"/>
</g>
</svg>
