<svg width="20" height="20" viewBox="0 0 20 20" fill="none" xmlns="http://www.w3.org/2000/svg">
<mask id="mask0_2_84" style="mask-type:alpha" maskUnits="userSpaceOnUse" x="0" y="0" width="20" height="20">
<rect width="20" height="20" fill="#D9D9D9"/>
</mask>
<g mask="url(#mask0_2_84)">
<path d="M14.995 17.3573L11.5271 13.9044L14.99 10.4515L16.3161 11.7827L15.1481 12.9565H18.5027V14.8473H15.1481L16.3211 16.0262L14.995 17.3573ZM3.39315 16.9356C2.86843 16.9356 2.42127 16.7508 2.05169 16.3812C1.68211 16.0118 1.49731 15.5646 1.49731 15.0398V12.769C1.49731 12.2442 1.68211 11.7971 2.05169 11.4275C2.42127 11.0579 2.86843 10.8731 3.39315 10.8731H8.0644C8.58912 10.8731 9.03627 11.0579 9.40586 11.4275C9.77544 11.7971 9.96023 12.2442 9.96023 12.769V15.0398C9.96023 15.5646 9.77544 16.0118 9.40586 16.3812C9.03627 16.7508 8.58912 16.9356 8.0644 16.9356H3.39315ZM3.39315 15.0398H8.0644V12.769H3.39315V15.0398ZM5.00502 9.54854L3.67898 8.22229L4.8519 7.04354H1.49731V5.1527H4.8519L3.67898 3.97375L5.00502 2.64771L8.46794 6.09562L5.00502 9.54854ZM11.9406 9.13187C11.4159 9.13187 10.9688 8.94708 10.5992 8.5775C10.2296 8.20791 10.0448 7.76076 10.0448 7.23604V4.96021C10.0448 4.43534 10.2296 3.98819 10.5992 3.61875C10.9688 3.24916 11.4159 3.06437 11.9406 3.06437H16.6069C17.1316 3.06437 17.5788 3.24916 17.9484 3.61875C18.3179 3.98819 18.5027 4.43534 18.5027 4.96021V7.23604C18.5027 7.76076 18.3179 8.20791 17.9484 8.5775C17.5788 8.94708 17.1316 9.13187 16.6069 9.13187H11.9406ZM11.9406 7.23604H16.6069V4.96021H11.9406V7.23604Z" fill="#F9F8FC"/>
</g>
</svg>
