<svg width="20" height="20" viewBox="0 0 20 20" fill="none" xmlns="http://www.w3.org/2000/svg">
<mask id="mask0_2_112" style="mask-type:alpha" maskUnits="userSpaceOnUse" x="0" y="0" width="20" height="20">
<rect width="20" height="20" fill="#D9D9D9"/>
</mask>
<g mask="url(#mask0_2_112)">
<path d="M4.92523 17.6694V16.0027L5.83336 15.0896H3.39315C2.86843 15.0896 2.42127 14.9049 2.05169 14.5354C1.68211 14.1658 1.49731 13.7186 1.49731 13.1938V4.22646C1.49731 3.70174 1.68211 3.25459 2.05169 2.885C2.42127 2.51542 2.86843 2.33063 3.39315 2.33063H9.70107V4.22646H3.39315V13.1938H16.6069V10.8283H18.5027V13.1938C18.5027 13.7186 18.3179 14.1658 17.9484 14.5354C17.5788 14.9049 17.1316 15.0896 16.6069 15.0896H14.1667L15.0748 16.0027V17.6694H4.92523ZM12.5448 12.3306L8.21877 8.00459L9.54482 6.67834L11.5969 8.70959V2.33063H13.4927V8.70959L15.5448 6.67834L16.8709 8.00459L12.5448 12.3306Z" fill="#F9F8FC"/>
</g>
</svg>
