<svg width="25" height="24" viewBox="0 0 25 24" fill="none" xmlns="http://www.w3.org/2000/svg">
<mask id="mask0_15_11" style="mask-type:alpha" maskUnits="userSpaceOnUse" x="0" y="0" width="25" height="24">
<rect x="0.5" width="24" height="24" fill="#D9D9D9"/>
</mask>
<g mask="url(#mask0_15_11)">
<path d="M8.96563 17L12.4999 13.4658L16.0341 17L17.4999 15.5343L13.9656 12L17.4999 8.46575L16.0341 7L12.4999 10.5343L8.96563 7L7.49988 8.46575L11.0341 12L7.49988 15.5343L8.96563 17ZM12.4999 22.2033C11.0847 22.2033 9.75688 21.9356 8.51638 21.4003C7.27571 20.8649 6.19655 20.1385 5.27888 19.221C4.36138 18.3033 3.63496 17.2242 3.09963 15.9835C2.5643 14.743 2.29663 13.4152 2.29663 12C2.29663 10.5848 2.5643 9.257 3.09963 8.0165C3.63496 6.77584 4.36138 5.69667 5.27888 4.779C6.19655 3.8615 7.27571 3.13509 8.51638 2.59975C9.75688 2.06442 11.0847 1.79675 12.4999 1.79675C13.915 1.79675 15.2429 2.06442 16.4834 2.59975C17.724 3.13509 18.8032 3.8615 19.7209 4.779C20.6384 5.69667 21.3648 6.77584 21.9001 8.0165C22.4355 9.257 22.7031 10.5848 22.7031 12C22.7031 13.4152 22.4355 14.743 21.9001 15.9835C21.3648 17.2242 20.6384 18.3033 19.7209 19.221C18.8032 20.1385 17.724 20.8649 16.4834 21.4003C15.2429 21.9356 13.915 22.2033 12.4999 22.2033ZM12.4999 19.9283C14.7172 19.9283 16.593 19.1613 18.1271 17.6273C19.6611 16.0931 20.4281 14.2173 20.4281 12C20.4281 9.78267 19.6611 7.90692 18.1271 6.37275C16.593 4.83875 14.7172 4.07175 12.4999 4.07175C10.2825 4.07175 8.4068 4.83875 6.87263 6.37275C5.33863 7.90692 4.57163 9.78267 4.57163 12C4.57163 14.2173 5.33863 16.0931 6.87263 17.6273C8.4068 19.1613 10.2825 19.9283 12.4999 19.9283Z" fill="#EDEBFA"/>
</g>
</svg>
