<svg width="24" height="24" viewBox="0 0 24 24" fill="none" xmlns="http://www.w3.org/2000/svg">
<mask id="mask0_1_36" style="mask-type:alpha" maskUnits="userSpaceOnUse" x="0" y="0" width="24" height="24">
<rect width="24" height="24" fill="#D9D9D9"/>
</mask>
<g mask="url(#mask0_1_36)">
<path d="M11 18.9523H13V14.7473L14.612 16.3593L16.012 14.9403L12 10.9283L7.988 14.9403L9.413 16.3343L11 14.7473V18.9523ZM6.07175 22.2033C5.44209 22.2033 4.9055 21.9815 4.462 21.538C4.0185 21.0945 3.79675 20.5579 3.79675 19.9283V4.07175C3.79675 3.44209 4.0185 2.9055 4.462 2.462C4.9055 2.0185 5.44209 1.79675 6.07175 1.79675H14.0838L20.2033 7.91625V19.9283C20.2033 20.5579 19.9815 21.0945 19.538 21.538C19.0945 21.9815 18.5579 22.2033 17.9283 22.2033H6.07175ZM12.9283 9.07175V4.07175H6.07175V19.9283H17.9283V9.07175H12.9283Z" fill="#F9F8FC"/>
</g>
</svg>
